<?xml version="1.0" encoding="utf-8"?>
<!-- Generator: Adobe Illustrator 23.1.1, SVG Export Plug-In . SVG Version: 6.00 Build 0)  -->
<svg version="1.1" id="레이어_1" xmlns="http://www.w3.org/2000/svg" xmlns:xlink="http://www.w3.org/1999/xlink" x="0px"
	 y="0px" viewBox="0 0 96 96" style="enable-background:new 0 0 96 96;" xml:space="preserve">
<style type="text/css">
	.st0{fill:#5D5D5D;}
	.st1{fill:#3F3A3B;}
</style>
<g>
	<path class="st0" d="M77.2,28L77.2,28H38.1c-1.8,0-3.5,0.7-4.8,1.9L16.8,46c-1.1,1.1-1.1,2.8-0.1,4c0,0,0,0,0.1,0.1l16.3,16.1
		c1.3,1.2,3,1.9,4.8,1.9h39.1c1.6,0,2.9-1.3,2.9-2.8l0,0V31C80.1,29.3,78.8,28,77.2,28z M67.5,56.6c-0.3,0.3-0.8,0.5-1.2,0.5
		c0,0,0,0-0.1,0c-0.5,0-0.9-0.2-1.3-0.6l-6.2-6.2l-6.2,6.2c-0.7,0.7-1.8,0.7-2.5,0c-0.4-0.3-0.6-0.8-0.6-1.3c0-0.5,0.2-0.9,0.5-1.3
		l6.2-6.2l-6.2-6.2c-0.7-0.7-0.7-1.8,0-2.5c0.7-0.7,1.8-0.8,2.6-0.1l6.2,6.2l6.2-6.2c0.8-0.7,1.9-0.7,2.6,0l0,0l-0.4,0.4l0.4-0.3
		c0.7,0.7,0.7,1.9,0,2.5L61.4,48l6.2,6.2c0.4,0.4,0.6,0.9,0.6,1.4C68.1,55.8,67.9,56.3,67.5,56.6z"/>
	<path class="st1" d="M67.2,39.6L67.2,39.6L67.2,39.6z"/>
</g>
</svg>
