<?xml version="1.0" encoding="utf-8"?>
<!-- Generator: Adobe Illustrator 23.1.1, SVG Export Plug-In . SVG Version: 6.00 Build 0)  -->
<svg version="1.1" id="레이어_1" xmlns="http://www.w3.org/2000/svg" xmlns:xlink="http://www.w3.org/1999/xlink" x="0px"
	 y="0px" viewBox="0 0 512 512" style="enable-background:new 0 0 512 512;" xml:space="preserve">
<style type="text/css">
	.st0{fill:#5D5D5D;}
</style>
<g>
	<path class="st0" d="M255.9,468.6c-27.5-27.5-55.4-55.5-83.2-83.4c55.4,0,111.2,0,166.6,0C311.4,413,283.5,440.9,255.9,468.6z"/>
	<path class="st0" d="M468.8,88.2c0-26.8-18-44.7-44.8-44.7c-55.9,0-111.8,0-167.7,0c-56.2,0-112.5,0-168.7,0
		c-26.2,0-44.3,18-44.3,44.3c-0.1,70-0.2,140-0.2,210.1c0,26.2,18.1,44.5,44.2,44.5c112.5,0.1,224.9,0.1,337.4,0
		c26.1,0,44.1-18.3,44.2-44.5C468.9,227.9,468.9,158,468.8,88.2z M362.9,107.8c13.8,0,27.6,0,41.8,0c0,14.3,0,28,0,42.1
		c-14,0-27.7,0-41.8,0C362.9,135.9,362.9,122,362.9,107.8z M299,107.7c13.8,0,27.5,0,41.8,0c0,14.2,0,28.1,0,42.2
		c-14,0-27.7,0-41.8,0C299,135.8,299,121.9,299,107.7z M235.1,107.7c14.1,0,27.8,0,41.8,0c0,14.1,0,28,0,42.2c-14,0-27.7,0-41.8,0
		C235.1,135.8,235.1,122,235.1,107.7z M235.1,171.7c14.1,0,27.8,0,41.8,0c0,14.1,0,28,0,42.2c-14,0-27.7,0-41.8,0
		C235.1,199.9,235.1,186,235.1,171.7z M107.4,107.7c14.1,0,27.8,0,41.8,0c0,14.1,0,28,0,42.2c-14,0-27.7,0-41.8,0
		C107.4,135.8,107.4,122,107.4,107.7z M149.1,213.9c-14,0-27.9,0-42,0c0-14.5,0-28.1,0-42c14,0,27.8,0,42,0
		C149.1,185.8,149.1,199.7,149.1,213.9z M171.1,107.8c13.9,0,27.7,0,41.9,0c0,13.9,0,27.8,0,42c-13.8,0-27.5,0-41.9,0
		C171.1,135.8,171.1,122,171.1,107.8z M171.3,171.8c13.7,0,27.6,0,41.8,0c0,14.2,0,28,0,42.1c-13.9,0-27.6,0-41.8,0
		C171.3,199.9,171.3,186.1,171.3,171.8z M340.7,299.3c-56.4,0-112.7,0-169.4,0c0-13.8,0-27.7,0-42.2c56.5,0,112.8,0,169.4,0
		C340.7,271.2,340.7,285.1,340.7,299.3z M340.9,213.8c-13.9,0-27.7,0-41.9,0c0-14,0-27.9,0-42c13.8,0,27.6,0,41.9,0
		C340.9,185.8,340.9,199.6,340.9,213.8z M404.8,213.8c-13.9,0-27.7,0-41.9,0c0-14,0-27.9,0-42c13.8,0,27.6,0,41.9,0
		C404.8,185.8,404.8,199.6,404.8,213.8z"/>
</g>
</svg>
